<svg width="46" height="46" viewBox="0 0 46 46" fill="none" xmlns="http://www.w3.org/2000/svg">
<rect width="46" height="46" rx="23" fill="#1D1D1D"/>
<g clip-path="url(#clip0_969_3587)">
<path d="M23 3C19.0444 3 15.1776 4.17298 11.8886 6.37061C8.59962 8.56823 6.03617 11.6918 4.52242 15.3463C3.00867 19.0009 2.6126 23.0222 3.3843 26.9018C4.15601 30.7814 6.06082 34.3451 8.85787 37.1421C11.6549 39.9392 15.2186 41.844 19.0982 42.6157C22.9778 43.3874 26.9992 42.9913 30.6537 41.4776C34.3082 39.9638 37.4318 37.4004 39.6294 34.1114C41.827 30.8224 43 26.9556 43 23C43 17.6957 40.8929 12.6086 37.1421 8.85786C33.3914 5.10714 28.3043 3 23 3V3ZM23 40.6533C19.5085 40.6533 16.0954 39.618 13.1924 37.6782C10.2893 35.7384 8.02662 32.9813 6.69048 29.7556C5.35435 26.5299 5.00475 22.9804 5.68591 19.556C6.36706 16.1316 8.04838 12.9861 10.5172 10.5172C12.9861 8.04837 16.1316 6.36706 19.556 5.6859C22.9804 5.00474 26.5299 5.35434 29.7556 6.69047C32.9813 8.02661 35.7384 10.2893 37.6782 13.1923C39.618 16.0954 40.6533 19.5085 40.6533 23C40.6533 25.3183 40.1967 27.6138 39.3095 29.7556C38.4224 31.8974 37.122 33.8435 35.4828 35.4828C33.8435 37.122 31.8974 38.4224 29.7556 39.3095C27.6138 40.1967 25.3183 40.6533 23 40.6533Z" fill="#00E8B4"/>
<path d="M15.2521 20.6878C17.6738 20.6878 19.637 18.7246 19.637 16.3029C19.637 13.8812 17.6738 11.918 15.2521 11.918C12.8304 11.918 10.8672 13.8812 10.8672 16.3029C10.8672 18.7246 12.8304 20.6878 15.2521 20.6878Z" fill="#00E8B4"/>
<path d="M14.0253 29.8163C14.9972 29.8163 15.785 29.0284 15.785 28.0566C15.785 27.0847 14.9972 26.2969 14.0253 26.2969C13.0535 26.2969 12.2656 27.0847 12.2656 28.0566C12.2656 29.0284 13.0535 29.8163 14.0253 29.8163Z" fill="#00E8B4"/>
<path d="M21.881 37.1819C23.4419 37.1819 24.7072 35.9165 24.7072 34.3556C24.7072 32.7947 23.4419 31.5293 21.881 31.5293C20.3201 31.5293 19.0547 32.7947 19.0547 34.3556C19.0547 35.9165 20.3201 37.1819 21.881 37.1819Z" fill="#00E8B4"/>
<path d="M32.7767 29.401C34.8797 29.401 36.5846 27.6961 36.5846 25.5931C36.5846 23.49 34.8797 21.7852 32.7767 21.7852C30.6736 21.7852 28.9688 23.49 28.9688 25.5931C28.9688 27.6961 30.6736 29.401 32.7767 29.401Z" fill="#00E8B4"/>
<path d="M28.8103 16.0894C30.0884 16.0894 31.1245 15.0533 31.1245 13.7752C31.1245 12.4971 30.0884 11.4609 28.8103 11.4609C27.5322 11.4609 26.4961 12.4971 26.4961 13.7752C26.4961 15.0533 27.5322 16.0894 28.8103 16.0894Z" fill="#00E8B4"/>
</g>
<defs>
<clipPath id="clip0_969_3587">
<rect width="40" height="40" fill="white" transform="translate(3 3)"/>
</clipPath>
</defs>
</svg>
