<?xml version="1.0"?><svg id="draft" xmlns="http://www.w3.org/2000/svg" xmlns:xlink="http://www.w3.org/1999/xlink" viewBox="0 0 4403.34 1000"><defs><linearGradient id="Unbenannter_Verlauf_11" x1="887.18" y1="863.38" x2="159.53" y2="135.73" gradientUnits="userSpaceOnUse"><stop offset=".1" stop-color="#3758f9"></stop><stop offset=".9" stop-color="#00e8b4"></stop></linearGradient></defs><path class="cls-1" fill="#ffffff" d="M1307.62,302.74c0-13.56,6.78-20.34,20.34-20.34h212.06c13.56,0,20.34,6.78,20.34,20.34v12.33c0,13.56-6.78,20.34-20.34,20.34h-171.99v136.23h136.23c13.56,0,20.34,6.78,20.34,20.34v12.33c0,13.56-6.78,20.34-20.34,20.34h-136.23v139.93h182.47c13.56,0,20.34,6.78,20.34,20.34v12.33c0,13.56-6.78,20.34-20.34,20.34h-222.53c-13.56,0-20.34-6.78-20.34-20.34v-394.52Z"></path><path class="cls-1" fill="#ffffff" d="M1627.54,632.53c0-16.03,3.08-29.9,9.25-41.61,6.16-11.71,14.38-21.47,24.66-29.28,10.27-7.8,21.88-14.18,34.83-19.11,12.95-4.93,26.4-8.63,40.38-11.1,13.97-2.46,27.63-4.1,40.99-4.93,13.35-.82,25.37-1.23,36.06-1.23h16.03v-8.01c0-12.73-1.75-23.52-5.24-32.36-3.5-8.83-8.32-15.92-14.49-21.27-6.16-5.34-13.36-9.14-21.58-11.4-8.23-2.25-17.06-3.39-26.51-3.39-15.62,0-29.49,2.26-41.61,6.78-12.13,4.53-21.68,8.84-28.66,12.95-11.92,5.76-21.17,3.29-27.74-7.4l-4.93-8.63c-6.58-12.33-4.32-21.57,6.78-27.74,9.45-5.34,22.7-11.1,39.76-17.26,17.05-6.16,37.5-9.25,61.34-9.25,39.04,0,69.24,10.38,90.62,31.13,21.36,20.76,32.06,51.07,32.06,90.93v176.92c0,13.56-6.78,20.34-20.34,20.34h-15.41c-13.56,0-20.34-6.78-20.34-20.34v-26.51c0-2.46.2-4.52.62-6.16.4-1.64.82-3.28,1.23-4.93h-1.23c-6.16,12.33-13.98,23.22-23.42,32.67-8.23,8.23-18.71,15.72-31.44,22.5-12.74,6.78-28.36,10.17-46.85,10.17-13.56,0-26.72-2.06-39.45-6.16-12.74-4.1-23.94-10.17-33.6-18.18-9.66-8.01-17.37-17.67-23.12-28.97-5.76-11.3-8.63-24.35-8.63-39.14ZM1687.95,627.6c0,12.33,4.83,23.73,14.49,34.21,9.65,10.48,24.14,15.72,43.46,15.72,13.15,0,24.97-2.98,35.44-8.94,10.48-5.95,19.31-13.76,26.51-23.42,7.19-9.65,12.73-20.34,16.64-32.05,3.9-11.71,5.86-23.32,5.86-34.83v-13.56h-16.03c-11.1,0-23.84.52-38.22,1.54-14.39,1.03-28.15,3.6-41.3,7.71-13.16,4.11-24.25,10.38-33.29,18.8-9.04,8.43-13.56,20.03-13.56,34.83Z"></path><path class="cls-1" fill="#ffffff" d="M1986.93,426.03c0-13.56,6.78-20.34,20.34-20.34h17.26c13.56,0,20.34,6.78,20.34,20.34v35.75c0,3.29-.11,6.38-.31,9.25-.21,2.88-.52,5.35-.92,7.4-.41,2.47-.62,4.73-.62,6.78h1.23c3.28-10.27,7.91-20.34,13.87-30.21,5.95-9.86,13.04-18.59,21.27-26.2,8.22-7.6,17.36-13.76,27.43-18.49,10.07-4.72,21.06-7.09,32.98-7.09,13.15,0,19.73,6.78,19.73,20.34v17.26c0,13.56-7.4,20.34-22.19,20.34s-28.46,3.8-39.76,11.4c-11.31,7.61-20.76,17.37-28.36,29.28-7.61,11.92-13.25,25.58-16.95,40.99-3.7,15.41-5.55,30.73-5.55,45.93v108.49c0,13.56-6.78,20.34-20.34,20.34h-19.11c-13.56,0-20.34-6.78-20.34-20.34v-271.23Z"></path><path class="cls-1" fill="#ffffff" d="M2236.58,457.47h-21.57c-13.16,0-19.73-6.78-19.73-20.34v-8.01c0-13.56,6.78-20.34,20.34-20.34h22.19v-68.42c0-13.56,6.78-20.34,20.34-20.34h17.88c13.56,0,20.34,6.78,20.34,20.34v68.42h54.25c13.56,0,20.34,6.78,20.34,20.34v8.01c0,13.56-6.58,20.34-19.73,20.34h-54.86v138.7c0,14.79,2.05,26.72,6.17,35.75,4.1,9.04,9.14,16.03,15.1,20.96,5.95,4.93,12.33,8.32,19.11,10.17,6.78,1.85,13.04,2.99,18.8,3.39,8.22.83,13.87,2.68,16.95,5.55,3.08,2.88,4.62,7.81,4.62,14.79v12.95c0,13.56-8.23,20.34-24.66,20.34s-30.42-2.26-44.38-6.78c-13.98-4.52-26.2-11.5-36.68-20.96-10.48-9.45-18.91-21.36-25.27-35.75-6.38-14.38-9.55-31.44-9.55-51.16v-147.95Z"></path><path class="cls-1" fill="#ffffff" d="M2448.63,302.74c0-13.56,6.78-20.34,20.34-20.34h19.11c13.15,0,19.73,6.78,19.73,20.34v141.16c0,3.7-.11,7.2-.31,10.48-.21,3.29-.52,5.96-.92,8.01-.41,2.88-.62,5.35-.62,7.4h1.23c3.28-7.4,8.32-15.3,15.1-23.73,6.78-8.42,15.1-16.23,24.97-23.42,9.86-7.18,21.16-13.04,33.9-17.57,12.73-4.52,26.91-6.78,42.53-6.78,36.99,0,64.11,9.97,81.37,29.9,17.26,19.94,25.89,49.84,25.89,89.69v179.38c0,13.56-6.78,20.34-20.34,20.34h-19.11c-13.56,0-20.34-6.78-20.34-20.34v-165.82c0-11.1-.72-21.36-2.16-30.82-1.45-9.45-4.32-17.66-8.63-24.66-4.32-6.98-10.38-12.53-18.19-16.64-7.81-4.1-17.88-6.16-30.21-6.16-14.79,0-28.57,2.88-41.3,8.63-12.74,5.76-23.73,13.87-32.98,24.35-9.25,10.48-16.55,22.81-21.88,36.99-5.35,14.18-8.01,29.69-8.01,46.54v127.6c0,13.56-6.58,20.34-19.73,20.34h-19.11c-13.56,0-20.34-6.78-20.34-20.34v-394.52Z"></path><path class="cls-1" fill="#ffffff" d="M2817.88,680c-4.11-3.7-6.69-7.8-7.71-12.33-1.03-4.52.71-9.86,5.24-16.03l10.48-14.79c7.4-9.45,16.64-10.68,27.74-3.7,3.7,2.88,8.63,6.27,14.79,10.17,6.16,3.91,13.25,7.71,21.27,11.4,8.01,3.7,16.95,6.89,26.81,9.55,9.86,2.68,20.55,4.01,32.06,4.01,23.42,0,42.01-5.64,55.79-16.95,13.76-11.3,20.65-26.4,20.65-45.31,0-16.03-5.14-29.17-15.41-39.45-10.28-10.27-23.22-19.42-38.84-27.43-15.62-8.01-32.47-15.82-50.55-23.42-18.09-7.6-34.94-16.43-50.55-26.51-15.62-10.07-28.57-22.5-38.84-37.29-10.28-14.79-15.41-33.49-15.41-56.1,0-18.49,3.59-35.14,10.79-49.93,7.19-14.79,17.16-27.43,29.9-37.91,12.73-10.48,27.74-18.59,45-24.35,17.26-5.75,35.75-8.63,55.48-8.63,12.73,0,24.86,1.14,36.37,3.39,11.5,2.26,21.98,5.04,31.44,8.32,9.45,3.29,17.66,6.89,24.66,10.79,6.98,3.91,12.53,7.5,16.64,10.79,9.86,6.99,11.91,16.24,6.16,27.74l-8.63,15.41c-3.7,6.58-7.92,9.97-12.64,10.17-4.73.21-9.77-1.33-15.1-4.62-8.23-4.93-19.01-10.37-32.36-16.33-13.36-5.95-29.28-8.94-47.77-8.94-22.61,0-41.3,5.45-56.1,16.34-14.79,10.89-22.19,25.79-22.19,44.69,0,15.62,5.13,28.36,15.41,38.22,10.27,9.86,23.21,18.6,38.84,26.2,15.61,7.61,32.46,15.01,50.55,22.19,18.08,7.19,34.93,15.93,50.55,26.2,15.61,10.28,28.56,22.91,38.84,37.91,10.27,15.01,15.41,34.21,15.41,57.64,0,17.26-3.08,33.39-9.25,48.39-6.16,15.01-15.21,28.05-27.12,39.14-11.92,11.1-26.41,19.94-43.46,26.51-17.06,6.57-36.48,9.86-58.25,9.86-15.62,0-30.31-1.54-44.08-4.62-13.77-3.08-26.2-6.98-37.3-11.71-11.1-4.72-20.86-9.65-29.28-14.79-8.43-5.13-15.1-9.76-20.03-13.87Z"></path><path class="cls-1" fill="#ffffff" d="M3151.37,561.64c0-23.01,4.1-44.48,12.33-64.42,8.22-19.93,19.73-37.19,34.52-51.78,14.79-14.58,32.36-26.09,52.71-34.52,20.34-8.42,42.63-12.64,66.88-12.64,13.15,0,25.06,1.14,35.75,3.39,10.68,2.26,20.34,5.04,28.97,8.32,8.63,3.29,16.12,6.89,22.5,10.79,6.37,3.91,11.61,7.5,15.72,10.79,5.34,3.29,8.22,7.4,8.63,12.33.4,4.93-1.23,10.08-4.93,15.41l-6.16,9.25c-6.58,10.28-15.83,11.92-27.74,4.93-6.58-4.52-15.72-9.55-27.43-15.1-11.71-5.55-25.79-8.32-42.23-8.32s-30.11,2.77-43.46,8.32c-13.36,5.55-24.87,13.25-34.52,23.12-9.66,9.86-17.16,21.58-22.5,35.14-5.35,13.56-8.01,28.36-8.01,44.38s2.67,30.82,8.01,44.38c5.34,13.56,12.95,25.38,22.81,35.44,9.86,10.08,21.47,17.98,34.83,23.73,13.35,5.76,28.05,8.63,44.08,8.63,18.9,0,35.03-3.28,48.39-9.86,13.35-6.57,23.73-12.73,31.13-18.49,11.5-7.4,20.75-5.55,27.74,5.55l4.93,9.25c6.57,11.1,4.72,20.14-5.55,27.12-4.53,3.7-10.17,7.71-16.95,12.02-6.78,4.31-14.79,8.43-24.04,12.33-9.25,3.91-19.73,7.18-31.44,9.86-11.71,2.67-24.56,4.01-38.53,4.01-24.66,0-47.16-4.11-67.5-12.33-20.34-8.22-37.81-19.62-52.4-34.21-14.59-14.58-26-31.84-34.21-51.78-8.23-19.93-12.33-41.61-12.33-65.03Z"></path><path class="cls-1" fill="#ffffff" d="M3490.41,561.03c0-23.42,4.41-45.1,13.25-65.03,8.83-19.93,20.75-37.19,35.75-51.78,15-14.58,32.67-25.89,53.01-33.9,20.34-8.01,42.23-12.02,65.65-12.02s45.31,4.01,65.65,12.02c20.34,8.01,38.11,19.32,53.32,33.9,15.2,14.59,27.22,31.85,36.06,51.78,8.83,19.94,13.25,41.61,13.25,65.03s-4.42,45.72-13.25,65.65c-8.84,19.94-20.86,37.2-36.06,51.78-15.21,14.59-32.98,26-53.32,34.21-20.34,8.22-42.23,12.33-65.65,12.33s-45.31-4.11-65.65-12.33c-20.34-8.22-38.02-19.62-53.01-34.21-15.01-14.58-26.92-31.84-35.75-51.78-8.84-19.93-13.25-41.81-13.25-65.65ZM3550.82,561.03c0,16.44,2.87,31.55,8.63,45.31,5.75,13.77,13.46,25.58,23.12,35.44,9.65,9.86,20.96,17.57,33.9,23.12,12.95,5.55,26.82,8.32,41.61,8.32s28.66-2.77,41.61-8.32c12.95-5.55,24.35-13.25,34.21-23.12,9.86-9.86,17.57-21.67,23.12-35.44,5.55-13.76,8.32-28.87,8.32-45.31s-2.77-30.82-8.32-44.38c-5.55-13.56-13.25-25.27-23.12-35.14-9.86-9.86-21.27-17.57-34.21-23.12-12.95-5.55-26.82-8.32-41.61-8.32s-28.66,2.77-41.61,8.32c-12.95,5.55-24.25,13.25-33.9,23.12-9.66,9.86-17.37,21.58-23.12,35.14-5.76,13.56-8.63,28.36-8.63,44.38Z"></path><path class="cls-1" fill="#ffffff" d="M3907.73,426.03c0-13.56,6.78-20.34,20.34-20.34h17.26c13.56,0,20.34,6.78,20.34,20.34v35.75c0,3.29-.11,6.38-.31,9.25-.21,2.88-.52,5.35-.92,7.4-.41,2.47-.62,4.73-.62,6.78h1.23c3.28-10.27,7.91-20.34,13.87-30.21,5.95-9.86,13.04-18.59,21.27-26.2,8.22-7.6,17.36-13.76,27.43-18.49,10.07-4.72,21.06-7.09,32.98-7.09,13.15,0,19.73,6.78,19.73,20.34v17.26c0,13.56-7.4,20.34-22.19,20.34s-28.46,3.8-39.76,11.4c-11.31,7.61-20.76,17.37-28.36,29.28-7.61,11.92-13.25,25.58-16.95,40.99-3.7,15.41-5.55,30.73-5.55,45.93v108.49c0,13.56-6.78,20.34-20.34,20.34h-19.11c-13.56,0-20.34-6.78-20.34-20.34v-271.23Z"></path><path class="cls-1" fill="#ffffff" d="M4113,561.64c0-24.66,4.01-47.05,12.02-67.19,8.01-20.13,18.9-37.29,32.67-51.47,13.76-14.18,30.21-25.17,49.31-32.98,19.11-7.8,39.76-11.71,61.95-11.71s40.47,3.7,57.33,11.1c16.85,7.4,30.92,17.67,42.23,30.82,11.3,13.16,19.93,28.77,25.89,46.85,5.95,18.09,8.94,38.02,8.94,59.79,0,5.76-1.95,10.69-5.86,14.79-3.91,4.11-8.94,6.16-15.1,6.16h-208.36c.82,16.86,4.32,31.85,10.48,45,6.16,13.16,14.18,24.25,24.04,33.29,9.86,9.04,21.05,15.83,33.6,20.34,12.53,4.53,25.78,6.78,39.76,6.78,17.26,0,32.26-2.77,45-8.32,12.73-5.55,22.6-10.99,29.59-16.34,12.33-6.57,21.57-4.32,27.74,6.78l5.55,9.25c3.28,5.35,4.41,10.38,3.39,15.1-1.03,4.73-4.22,8.74-9.55,12.02-4.53,3.29-10.28,6.89-17.26,10.79-6.99,3.91-14.9,7.5-23.73,10.79-8.84,3.29-18.7,6.06-29.59,8.32-10.89,2.25-22.5,3.39-34.83,3.39-24.66,0-47.06-4.22-67.19-12.64-20.14-8.42-37.51-19.93-52.09-34.52-14.59-14.58-25.89-31.84-33.9-51.78-8.01-19.93-12.02-41.4-12.02-64.42ZM4343.55,528.36c-.83-27.53-8.53-48.28-23.12-62.26-14.59-13.97-32.16-20.96-52.71-20.96-23.02,0-42.84,7.3-59.49,21.88-16.64,14.59-27.23,35.04-31.75,61.34h167.06Z"></path><path class="cls-2" fill="url(#Unbenannter_Verlauf_11)" d="M929.36,525.57c9.79,22.09,32.12,37.54,58.12,37.54,35.02,0,63.41-28.01,63.41-62.56s-28.39-62.56-63.41-62.56c-26,0-48.34,15.44-58.12,37.54h-388.05v-188.94h325.42c9.79,22.09,32.12,37.54,58.12,37.54,35.02,0,63.41-28.01,63.41-62.56s-28.39-62.56-63.41-62.56c-26,0-48.34,15.44-58.12,37.54h-325.42V51.36c50.74,3.76,99.18,15.78,143.97,34.64,0,.22-.02.44-.02.66,0,34.55,28.39,62.56,63.41,62.56s63.41-28.01,63.41-62.56-28.39-62.56-63.41-62.56c-16.38,0-31.31,6.13-42.57,16.19C644.92,14.38,577.55,0,506.84,0,321.05,0,158.32,99.14,70.08,246.59c-1.1,1.45-2.05,3.02-2.82,4.69C24.49,324.58,0,409.52,0,500c0,275.7,227.36,500,506.84,500,71.41,0,139.42-14.66,201.1-41.07,11.02,9.13,25.23,14.64,40.75,14.64,35.02,0,63.41-28.01,63.41-62.56s-28.39-62.56-63.41-62.56-63.41,28.01-63.41,62.56c0,1,.03,2,.08,2.99-44.81,18.87-93.27,30.88-144.03,34.64v-186.99h325.42c9.79,22.09,32.12,37.54,58.12,37.54,35.02,0,63.41-28.01,63.41-62.56s-28.39-62.56-63.41-62.56c-26,0-48.34,15.44-58.12,37.54h-325.42v-186.03h388.05ZM354.79,75.79c-19.31,21.32-37.22,46.89-53.37,76.5-14.12,25.91-26.48,54.16-36.97,84.24h-127.11c53.83-73.27,129.47-129.96,217.45-160.74ZM105.39,286.58h143.79c-15.51,58.66-24.52,122.64-26.3,188.94H51.41c3.72-68.07,22.84-132.16,53.98-188.94ZM51.48,525.57h171.44c1.83,65.23,10.64,128.2,25.77,186.03H104.42c-30.39-56.03-49.11-119.1-52.93-186.03ZM135.99,761.65h127.83c10.62,30.76,23.19,59.63,37.6,86.06,16.14,29.61,34.06,55.19,53.37,76.5-88.71-31.03-164.88-88.41-218.8-162.56ZM490.58,948.82c-53.48-7.38-104.27-51.04-144.48-124.82-10.57-19.4-20.06-40.27-28.44-62.36h172.92v187.17ZM490.58,711.6h-189.39c-16.14-57.07-25.56-120.2-27.5-186.03h216.9v186.03ZM490.58,475.52h-216.93c1.89-66.93,11.51-131.08,28.05-188.94h188.88v188.94ZM490.58,236.53h-172.24c8.21-21.42,17.48-41.67,27.76-60.54,40.22-73.78,91-117.44,144.48-124.82v185.35Z"></path></svg>