<svg xmlns="http://www.w3.org/2000/svg" viewBox="-60 -85.5 1171 1171"><defs><linearGradient id="Unbenannter_Verlauf_11" x1="887.18" y1="863.38" x2="159.53" y2="135.73" gradientUnits="userSpaceOnUse"><stop offset=".1" stop-color="#3758f9"></stop><stop offset=".9" stop-color="#00e8b4"></stop></linearGradient></defs><path d="M929.36,525.57c9.79,22.09,32.12,37.54,58.12,37.54,35.02,0,63.41-28.01,63.41-62.56s-28.39-62.56-63.41-62.56c-26,0-48.34,15.44-58.12,37.54h-388.05v-188.94h325.42c9.79,22.09,32.12,37.54,58.12,37.54,35.02,0,63.41-28.01,63.41-62.56s-28.39-62.56-63.41-62.56c-26,0-48.34,15.44-58.12,37.54h-325.42V51.36c50.74,3.76,99.18,15.78,143.97,34.64,0,.22-.02.44-.02.66,0,34.55,28.39,62.56,63.41,62.56s63.41-28.01,63.41-62.56-28.39-62.56-63.41-62.56c-16.38,0-31.31,6.13-42.57,16.19C644.92,14.38,577.55,0,506.84,0,321.05,0,158.32,99.14,70.08,246.59c-1.1,1.45-2.05,3.02-2.82,4.69C24.49,324.58,0,409.52,0,500c0,275.7,227.36,500,506.84,500,71.41,0,139.42-14.66,201.1-41.07,11.02,9.13,25.23,14.64,40.75,14.64,35.02,0,63.41-28.01,63.41-62.56s-28.39-62.56-63.41-62.56-63.41,28.01-63.41,62.56c0,1,.03,2,.08,2.99-44.81,18.87-93.27,30.88-144.03,34.64v-186.99h325.42c9.79,22.09,32.12,37.54,58.12,37.54,35.02,0,63.41-28.01,63.41-62.56s-28.39-62.56-63.41-62.56c-26,0-48.34,15.44-58.12,37.54h-325.42v-186.03h388.05ZM354.79,75.79c-19.31,21.32-37.22,46.89-53.37,76.5-14.12,25.91-26.48,54.16-36.97,84.24h-127.11c53.83-73.27,129.47-129.96,217.45-160.74ZM105.39,286.58h143.79c-15.51,58.66-24.52,122.64-26.3,188.94H51.41c3.72-68.07,22.84-132.16,53.98-188.94ZM51.48,525.57h171.44c1.83,65.23,10.64,128.2,25.77,186.03H104.42c-30.39-56.03-49.11-119.1-52.93-186.03ZM135.99,761.65h127.83c10.62,30.76,23.19,59.63,37.6,86.06,16.14,29.61,34.06,55.19,53.37,76.5-88.71-31.03-164.88-88.41-218.8-162.56ZM490.58,948.82c-53.48-7.38-104.27-51.04-144.48-124.82-10.57-19.4-20.06-40.27-28.44-62.36h172.92v187.17ZM490.58,711.6h-189.39c-16.14-57.07-25.56-120.2-27.5-186.03h216.9v186.03ZM490.58,475.52h-216.93c1.89-66.93,11.51-131.08,28.05-188.94h188.88v188.94ZM490.58,236.53h-172.24c8.21-21.42,17.48-41.67,27.76-60.54,40.22-73.78,91-117.44,144.48-124.82v185.35Z" fill="url(#Unbenannter_Verlauf_11)"></path></svg>